<?xml version="1.0" standalone="no"?>
<!DOCTYPE svg PUBLIC "-//W3C//DTD SVG 20010904//EN"
 "http://www.w3.org/TR/2001/REC-SVG-20010904/DTD/svg10.dtd">
<svg version="1.0" xmlns="http://www.w3.org/2000/svg"
 width="600.000000pt" height="480.000000pt" viewBox="0 0 600.000000 480.000000"
 preserveAspectRatio="xMidYMid meet">

<g transform="translate(0.000000,480.000000) scale(0.100000,-0.100000)"
fill="#000000" stroke="none">
<path d="M0 2400 l0 -2400 3000 0 3000 0 0 2400 0 2400 -3000 0 -3000 0 0
-2400z m3270 1803 c650 -95 1197 -535 1436 -1155 19 -48 34 -92 34 -99 0 -6
-14 3 -32 20 -17 17 -35 31 -39 31 -3 0 -14 21 -24 48 -106 281 -341 587 -596
774 -529 388 -1217 454 -1809 172 -283 -135 -531 -348 -703 -604 -81 -121
-173 -305 -212 -423 -22 -68 -33 -86 -61 -104 -19 -12 -34 -18 -34 -13 0 29
79 242 126 340 176 366 462 656 829 840 161 80 277 121 449 157 205 42 419 48
636 16z m-660 -440 l25 -13 -24 -6 c-13 -4 -29 -20 -36 -38 l-13 -31 -11 27
c-5 15 -22 33 -37 41 l-27 14 25 6 c13 4 30 19 37 34 l12 27 12 -24 c7 -14 24
-30 37 -37z m358 -154 c-30 -88 101 -226 247 -259 63 -14 117 -5 149 25 23 21
26 22 26 6 0 -29 -37 -68 -76 -81 -145 -48 -385 103 -388 243 -1 26 6 54 17
70 24 37 39 35 25 -4z m-705 -47 c5 -6 23 -16 41 -20 l31 -8 -40 -20 c-28 -13
-43 -28 -51 -52 l-10 -33 -15 33 c-8 19 -27 39 -46 48 -18 8 -33 17 -33 20 0
3 14 11 30 17 20 8 36 24 47 50 l16 38 10 -30 c5 -16 14 -36 20 -43z m532 -61
l30 -15 -31 -12 c-19 -8 -36 -25 -44 -44 l-13 -32 -13 32 c-8 19 -26 36 -46
44 l-32 14 36 15 c28 12 38 23 43 48 l8 33 16 -34 c9 -19 30 -41 46 -49z
m-257 -285 c-81 -22 -92 -44 -63 -126 8 -24 13 -45 10 -48 -9 -10 -139 -22
-147 -14 -4 4 -18 47 -33 96 -20 70 -23 91 -13 98 7 4 76 7 153 7 131 0 137
-1 93 -13z m-400 -37 c-2 -6 -42 -22 -88 -36 -100 -28 -148 -59 -208 -132 -41
-51 -43 -55 -26 -68 16 -12 16 -13 -8 -13 -14 0 -31 7 -38 15 -10 12 -5 24 25
65 56 76 115 117 214 146 47 14 91 27 96 29 22 7 36 4 33 -6z m1106 -328 c37
-41 12 -131 -36 -131 -15 0 -17 3 -8 19 14 28 12 73 -5 97 -25 37 18 49 49 15z
m1422 -66 c7 -28 -18 -75 -40 -75 -12 0 -12 6 -3 29 8 23 7 34 -6 54 -12 19
-13 27 -4 30 20 7 46 -12 53 -38z m-1948 -68 c10 -8 5 -14 -18 -29 -62 -37
-108 -202 -94 -331 l7 -58 -44 3 -44 3 0 120 c0 138 18 205 68 262 46 52 86
62 125 30z m2047 -156 c0 -19 -6 -36 -12 -38 -7 -3 -13 3 -13 11 0 9 -12 21
-26 26 -15 6 -314 10 -780 10 l-755 0 -24 -24 c-24 -24 -25 -24 -35 -5 -8 13
-7 25 0 39 11 20 19 20 828 18 l817 -3 0 -34z m-3177 10 c10 -6 6 -15 -16 -38
-35 -35 -62 -115 -62 -185 l0 -48 -35 0 c-33 0 -35 2 -35 35 0 146 83 278 148
236z m3467 -221 c164 -23 301 -43 304 -45 2 -3 -168 -5 -379 -5 l-383 0 49 49
c41 42 54 49 79 46 17 -2 165 -23 330 -45z m-3785 -42 c0 -5 -143 -7 -317 -7
-175 1 -309 4 -298 7 11 2 139 22 285 42 l265 37 32 -36 c18 -20 33 -39 33
-43z m1480 -216 c54 -27 60 -48 60 -225 0 -173 -7 -204 -55 -225 -58 -26 -163
-7 -179 33 -3 9 -6 96 -6 194 0 196 5 213 63 230 49 14 79 13 117 -7z m1364 4
c45 -19 66 -52 66 -103 l0 -43 -55 0 -55 0 0 35 c0 19 -4 35 -10 35 -5 0 -10
-16 -10 -35 0 -30 8 -43 51 -83 61 -55 79 -93 79 -161 0 -77 -28 -104 -113
-109 -63 -4 -68 -3 -97 26 -25 26 -30 38 -30 81 l0 51 55 0 55 0 0 -35 c0 -19
5 -35 10 -35 6 0 10 14 10 31 0 24 -10 41 -45 73 -71 65 -85 92 -85 164 0 55
3 66 26 87 38 35 94 43 148 21z m-2416 -218 c18 -123 32 -229 32 -236 0 -9
-14 -12 -52 -10 -52 3 -53 4 -56 36 -3 28 -7 32 -32 32 -25 0 -29 -4 -32 -32
-3 -32 -4 -33 -55 -36 -47 -3 -53 -1 -53 16 0 11 14 113 30 227 17 114 30 211
30 216 0 5 35 9 78 9 l79 0 31 -222z m272 32 c0 -120 4 -190 10 -190 6 0 10
70 10 190 l0 190 55 0 55 0 0 -204 c0 -201 0 -205 -24 -232 -20 -24 -33 -28
-88 -32 -58 -4 -67 -2 -96 23 l-32 27 0 209 0 209 55 0 55 0 0 -190z m480 145
c0 -43 -1 -45 -30 -45 l-30 0 -2 -187 -3 -188 -52 -3 -53 -3 0 190 0 191 -30
0 c-29 0 -30 2 -30 45 l0 45 115 0 115 0 0 -45z m593 13 c3 -18 11 -86 18
-151 7 -64 13 -116 15 -114 1 1 10 59 18 127 24 185 16 170 85 170 l58 0 16
-124 c10 -68 17 -134 18 -147 1 -55 16 20 29 144 l14 127 53 0 c46 0 53 -3 53
-19 0 -19 -34 -322 -45 -408 l-6 -43 -79 0 c-89 0 -82 -8 -95 110 -13 120 -18
120 -34 5 l-16 -110 -80 0 -80 0 -22 185 c-11 102 -24 206 -27 233 l-5 47 53
0 c53 0 54 -1 59 -32z m739 -163 c14 -104 29 -209 33 -232 l6 -43 -55 0 c-54
0 -55 0 -58 33 -2 26 -8 33 -30 35 -24 3 -28 -1 -34 -32 l-6 -36 -55 0 c-54 0
-55 0 -49 28 3 15 17 110 31 212 36 260 22 231 113 228 l77 -3 27 -190z m638
100 c0 -78 3 -95 15 -95 12 0 15 17 15 95 l0 95 55 0 55 0 -2 -232 -3 -233
-52 -3 -53 -3 0 95 c0 79 -3 96 -15 96 -12 0 -15 -17 -15 -96 l0 -95 -52 3
-53 3 -3 220 c-1 121 0 225 2 232 4 8 24 13 56 13 l50 0 0 -95z m-2810 -696
c50 -67 222 -241 288 -291 36 -28 42 -37 37 -58 -4 -14 -8 -27 -11 -29 -7 -8
-152 116 -244 210 l-95 96 -460 62 c-253 34 -464 64 -470 66 -5 2 197 4 450 4
l460 0 45 -60z m3745 56 c-5 -2 -219 -32 -475 -66 l-465 -62 -101 -102 c-366
-369 -803 -556 -1304 -556 -255 -1 -462 37 -679 124 l-106 42 60 5 c50 4 77
-1 159 -28 669 -219 1387 -28 1870 497 36 40 78 89 93 111 l28 40 465 -1 c256
0 461 -2 455 -4z m-2179 -288 c27 -14 27 -15 6 -21 -12 -4 -28 -19 -36 -33
l-13 -27 -12 22 c-6 12 -23 28 -38 35 l-26 14 27 7 c16 4 31 17 37 34 11 27
11 27 19 5 5 -12 21 -28 36 -36z m-255 -77 c7 -20 22 -33 45 -42 l35 -12 -33
-16 c-18 -8 -39 -29 -47 -45 l-15 -30 -11 29 c-7 16 -27 37 -45 46 l-33 17 32
11 c21 8 35 21 42 42 14 37 17 38 30 0z m427 -50 l27 -13 -28 -9 c-16 -6 -29
-19 -33 -34 l-6 -25 -19 30 c-10 17 -26 31 -34 31 -8 0 -15 5 -15 10 0 6 7 10
15 10 9 0 24 13 33 30 l17 30 8 -24 c4 -13 20 -29 35 -36z"/>
<path d="M2677 2013 c-4 -3 -7 -71 -7 -150 0 -120 2 -143 15 -143 13 0 15 23
15 150 0 137 -4 163 -23 143z"/>
<path d="M1580 1875 c0 -22 -3 -50 -6 -62 -5 -18 -2 -23 14 -23 17 0 19 5 14
48 -6 64 -21 89 -22 37z"/>
<path d="M3671 1909 c0 -14 -4 -47 -7 -73 -6 -38 -4 -46 10 -46 18 0 21 37 7
105 -7 30 -9 33 -10 14z"/>
</g>
</svg>
